# xmcd CD database file
#
# Track frame offsets:
#	150
#	23243
#	33845
#	51058
#	59572
#	72220
#	85863
#	94413
#	103273
#	119697
#	134583
#	148258
#	162929
#	171354
#	193732
#	209192
#	230105
#	236929
#
# Disc length: 3315 seconds
#
# Revision: 1
# Processed by: cddbd v1.5.1PL0 Copyright (c) Steve Scherf et al.
# Submitted via: CDex 1.51
#
DISCID=220cf112
DTITLE=MacKenzie and Kaminski - Folk 'n Blues In Black 'n White
DYEAR=2000
DGENRE=Blues
TTITLE0=Malted Milk
TTITLE1=San Francisco Bay Blues
TTITLE2=Make Me A Pallet
TTITLE3=Cakewalk Into Town
TTITLE4=Girl Of The North Country
TTITLE5=Nobody Knows You
TTITLE6=Baby Let Me Lay It On You
TTITLE7=Corina
TTITLE8=Cocaine Blues
TTITLE9=So Sweet
TTITLE10=Walkin Blues
TTITLE11=He Was A Friend Of Mine
TTITLE12=Melaque Shuffle
TTITLE13=Dont Think Twice
TTITLE14=How Long Blues
TTITLE15=Sweet Juanita
TTITLE16=(silent track)
TTITLE17=Sweet Home Chicago
EXTD=YEAR: 2000
EXTT0=
EXTT1=
EXTT2=
EXTT3=
EXTT4=
EXTT5=
EXTT6=
EXTT7=
EXTT8=
EXTT9=
EXTT10=
EXTT11=
EXTT12=
EXTT13=
EXTT14=
EXTT15=
EXTT16=
EXTT17=
PLAYORDER=
